<mxfile host="app.diagrams.net" modified="2024-05-24T11:33:52.349Z" agent="Mozilla/5.0 (Windows NT 10.0; Win64; x64) AppleWebKit/537.36 (KHTML, like Gecko) Chrome/121.0.0.0 Safari/537.36" etag="s59wMsV_kQkYQnu-SKzU" version="24.4.7" type="device">
  <diagram name="PÃ¡gina-1" id="DJVaNujMOsk4iFQ6_doj">
    <mxGraphModel dx="1434" dy="782" grid="1" gridSize="10" guides="1" tooltips="1" connect="1" arrows="1" fold="1" page="1" pageScale="1" pageWidth="827" pageHeight="1169" math="0" shadow="0">
      <root>
        <mxCell id="0" />
        <mxCell id="1" parent="0" />
        <mxCell id="xwqHC5SKnrxDkjC-gXKu-11" value="" style="whiteSpace=wrap;html=1;aspect=fixed;fillColor=#dae8fc;strokeColor=#6c8ebf;rounded=1;shadow=1;glass=1;" vertex="1" parent="1">
          <mxGeometry x="110" y="40" width="500" height="500" as="geometry" />
        </mxCell>
        <mxCell id="xwqHC5SKnrxDkjC-gXKu-2" value="" style="rounded=0;whiteSpace=wrap;html=1;" vertex="1" parent="1">
          <mxGeometry x="250" y="250" width="280" height="20" as="geometry" />
        </mxCell>
        <mxCell id="xwqHC5SKnrxDkjC-gXKu-3" value="E-mail" style="text;html=1;align=center;verticalAlign=middle;resizable=0;points=[];autosize=1;strokeColor=none;fillColor=none;" vertex="1" parent="1">
          <mxGeometry x="130" y="245" width="60" height="30" as="geometry" />
        </mxCell>
        <mxCell id="xwqHC5SKnrxDkjC-gXKu-4" value="" style="rounded=0;whiteSpace=wrap;html=1;" vertex="1" parent="1">
          <mxGeometry x="250" y="310" width="280" height="20" as="geometry" />
        </mxCell>
        <mxCell id="xwqHC5SKnrxDkjC-gXKu-5" value="Senha" style="text;html=1;align=center;verticalAlign=middle;resizable=0;points=[];autosize=1;strokeColor=none;fillColor=none;" vertex="1" parent="1">
          <mxGeometry x="130" y="305" width="60" height="30" as="geometry" />
        </mxCell>
        <mxCell id="xwqHC5SKnrxDkjC-gXKu-6" value="Entrar" style="rounded=1;whiteSpace=wrap;html=1;" vertex="1" parent="1">
          <mxGeometry x="302" y="410" width="136" height="30" as="geometry" />
        </mxCell>
        <mxCell id="xwqHC5SKnrxDkjC-gXKu-10" value="" style="shape=image;html=1;verticalLabelPosition=bottom;verticalAlign=top;imageAspect=1;aspect=fixed;image=data:image/jpeg,/9j/4AAQSkZJRgABAQAAAQABAAD/2wCEAAUFBQUFBQUGBgUICAcICAsKCQkKCxEMDQwNDBEaEBMQEBMQGhcbFhUWGxcpIBwcICkvJyUnLzkzMzlHREddXX0BBQUFBQUFBQYGBQgIBwgICwoJCQoLEQwNDA0MERoQExAQExAaFxsWFRYbFykgHBwgKS8nJScvOTMzOUdER11dff/CABEIAoACgAMBIQACEQEDEQH/xAAdAAEAAgMBAQEBAAAAAAAAAAAABwgEBQYDAgkB/9oACAEBAAAAALdgAAAAAAAAAAAAAAAAAAAAAAAAAAAAAAAAAAAAAAAAAAAAAAAAAAAAAAAAAAAAAAAAAAAAAAAAAAAAAAAAAAAAAAAAAAAAAAAAAAAAAAAAAAAAAAAAAAAAAAAAAAAAAAAAAAAAAAAAAAAAAAAAAAAAAAAAAAAAAAAAAAAABhxvwnN4eZ0neSPmAAAAAAAAAAAGlr7DGCBnzNYLdAAAAAAAAAAAhysOvADYWfmIAAAAAAAAAAVyr2AAWGsWAAAAAAAAAAgStIAAWYnkAAAAAAAAAHC0s8wAA9bqdwAAAAAAAAAFKeEAAA726gAAAAAAAAAjumQAABc+QgAAAAAAAACrcJAAAE3WjAAAAAAAAAKLcuAAAdVecAAAAAAAAB4fnz5gAAHr+g3sAAAAAAAABqaCAAABf3aAAAAAAAAAa78/wAAB/f0BzwAAAAAAAAPn8/8AAAAANh+gH9AAAAAAAAAUxjwAAAkW5gAAAAAAAABAVawAACy09gAAAAAAAAGmohjAAAZN8NwAAAAAAAAAK1wEAABP9kgAAAAAAAAAw6S8oAAHWXaywAAAAAAAAActS7UAAG4uj1AAAAAAAAAADk6f80AB01wOrAAAAAAAAAAGurbCvmAek12S2AAAAAAAAAAAHLwhFPNh0srTf04AAAAAAAAAAANPzuHmdHtwAAAAAAAAAAAAAAAAAAAAAAAAAAAAAAAAAAAAAAAAAAAAAAAAAAAAAAAAAAAAAAAAAAAAAAAAAAAAAAAAAAAAAAAAAAAPnH8PP4+/T3yPoAAAAAAAAABi8ty3Nc/otLqtbh+X8D++uZstrut70HS9T1OUAAAAAAAD442P+E4nmPMAAAD06ftu7kDsvsAAAAAAa+LosjbVgAAAABtJJlOUdgAAAAAPmN4Ti3GAAAAAADJlKbJI+gAAAA+Yhr7yAAAAAAAAddYOXvoAAABw9XOJAAAAAAAAO2tH3AAAAIBrh5gAAAAAAAB6WPn4AAAVmgcAAAAAAAAAnizIAACE6tAAAAAAAAABaWbAAAYdDtWAAAAAAAAAG0vjmAABF1PwAAAAAAAAALgSiAAEJVbAAAAAAAAAAtJNoAAQjVwAAAAAAAAAC0c3AABCNXAAAAAAAAAALRzcAAEI1cAAAAAAAAAAtHNwAAQjVwAAAAAAAAAC0c3AABCNXAAAAAAAAAALRzcAAEI1cAAAAAAAAAAtHNwAAQjVwAAAAAAAAAC0c3AABCNXAAAAAAAAAALRzcAAEI1cAAAAAAAAAAtHNwAAQjVwAAAAAAAAAC0c3AABCNXAAAAAAAAAALRzcAAEI1cAAAAAAAAAAtHNwAAQjVwAAAAAAAAAC0c3AABCNXAAAAAAAAAALRzcAAEZQaAAAAAAAAABOUmgAAAAAAAAAAAAAAAAAAAAAAAAAAAAAAAAAAAAAAAAAAAAAAAAAAAAAAAAAAAAAAAAAAAAAAAAAAAAAAAAAAAAAAAAAAAAAAAAAAAAAAAAAAAAAAAAAAAAAAAAAAAAAAAAAAAAAB//xAAYAQEBAQEBAAAAAAAAAAAAAAAABAMCAf/aAAgBAhAAAAAAAAAAAAAAAAAAAAAAAAAAAAAAAAAAAAAAAAAAAAAAAAAAAAAAAAAAAAAAAAAAAAAAAAAAAAAAAAAAAAAAADbTnHkAAAAAe1dibIAAAAAp1BHyAAAABpUBxIAAAABX2Ak4AAAAD20AxnAAAADagA8iAAAACnUAR8gAAACvsAS5gAAAC30AT4gAAAC4AMMAAAABcAGM4AAAAuADDAAAAAXABhgAAAALfQBNkAAAAK+wBJwAAAAKNgBCAAAAGlQBxIAAAAC30BPiAAAACjYBF4AAAAD2z0GGAAAAADSoOJAAAAABrSZzeAAAAAB715yAAAAAAAAAAAAAAAAAAAAAAAAAAAAAAAAAAAAAAAAAAAAAB6eAAAAAPde++g854y4AAAA037AA8xx8AAAd0dgAAwwAABvuAAAcy8gAFGwAAAeScgAb7gAAAeR+AB3WAAAAcSABX2AAAAJcwDusAAAAM5QDfcAAAAEIBTqAAAACPkBVoAAAACTgBVoAAAACTgBVoAAAACTgBVoAAAACTgBVoAAAACTgBVoAAAACTgBVoAAAACTgBVoAAAACTgBVoAAAACTgBVoAAAACTgBVoAAAACTgBVoAAAACTgBVoAAAACTgBVoAAAACTgBVoAAAACTgBv2AAAACfkAAAAAAAAAAAAAAAAAAAAAAAAAAAAAAAAAAAAAAAAAAAAAAAAAAAAAAAAAAAAAAAAAAB//EABcBAQEBAQAAAAAAAAAAAAAAAAADAgH/2gAIAQMQAAAAAAAAAAAAAAAAAAAAAAAAAAAAAAAAAAAAAAAAAAAAAAAAAAAAAAAAAAAAAAAAAAAAAAAAAAAAAAAAAAAAAAAxxvoAAAAAS4KaAAAAAJ5BXoAAAAGZgdqAAAABLgCvQAAAA5IA1QAAAAMzAFgAAAAnkAV6AAAAJcAFNAAAACIAb2AAAAIgBvYAAAAiAGqAAAACIAaoAAAAIgBvYAAAAiAFNAAAACXABXoAAAAxgAWAAAADMwDtQAAAARAN7AAAABjACvQAAAAIgb2AAAAAzMO1AAAAAGZmt9AAAAABnvQAAAAAAAAAAAAAAAAAAAAAAAAAAAAAAAAAAAAAAAAAAAAAAAAAAAc5nnAd13QAAAGccAAa30AABnHAAAb2AADGAAADtOgAE8gAAAr0ADGAAAAFegByQAAAB2oAS4AAAAKaAOSAAAADVADGAAAAAWAJ5AAAABXoCeQAAAAV6AnkAAAAFegJ5AAAABXoCeQAAAAV6AnkAAAAFegJ5AAAABXoCeQAAAAV6AnkAAAAFegJ5AAAABXoCeQAAAAV6AnkAAAAFegJ5AAAABXoCeQAAAAV6AnkAAAAFegJ5AAAABXoDGQAAAAU6AAAAAAAAAAAAAAAAAAAAAAAAAAAAAAAAAAAAAAAAAAAAAAAAAAAAAAAAAAAAAAAAAAA/8QAShAAAQMCAgQKBQcJBwUAAAAAAQIDBAUGABEHF1SUEiExNkBBUHWBsyJRYXFyE0JSYpGhsRQwMmCCkqKy0RUgIzNDU5AWJFWTwf/aAAgBAQABPwD/AJ45tQgU1kvzZjUdscqnFhIxVdMFn04qQw+9NWOphHF9qssTdPEgkiDQG0+ovOk/cnLD+mu73CS23Ca9zWf4nGuO99rjbunDGmu72z/itw3fYWsvwOIWniQCBPoDavWWXSPuVilaYLPqJSh996Es9T6OL7U54hVCDUmQ/CmNSGzyKbWFD9Rq3cVHt2KZNTmoZRkeCk/pq+FI5cXLprqUsuMUGMIrO0OZKdPuHIMVCp1GqvqfnzXpDp+c4sq/MU+qVGlPpfgTXo7o+c2spxbWmyoRS2xXoolNbQ0Alwe8chxRLho9xRRJpk1D6MhmkcS0fEk8n6h31pXhUEu0+j8CVUBmFucrTJ/+qxU6rUazLcmVCW4++vlUs/cPUPzlLq1SostuZTpa2Hk8ikHl9h9YxYulaFXy1T6twItQOQQvkae/or9QOIZ40laUVLU/RKA/kgZoky0Hl+o3gkn88CQQQcaNdKKgpiiV9/MHJEaWs/wOdv6WNIBhJdt6lPZPrTlMeSf0En5g6Fon0gGelu36q/nIQnKI8rlcSPmHt3SBdzdpUJ19CgZr+bUVH1vp+5OHnnZLzrzzhW64srWtXKSTmSfaehMPvRXmn2HCh1pYUhaeUKBzBGLAu1u7aE1IUQJjOTUpH1h87x7bJABJyAGNIlzque45TyF5w4+bEYdXBTyq8T0TRzdCrYuOM445lDlEMyR1BKuRXgcAggEHMEdtaUK+aDakwtOcGRMP5Oz+3ynwHRtGNfNetOEpxfCkRP8AtnvXmjkPiO2tN9YMqvQaWhfoQ2OGofXd6NoPrBjVyfS1K9CYxw0D67XbV6zzU7rr0nPMGW4lPwtng9GsioGmXZQZOeQ/K20K9zh4HbMp0R4sh48jba1eCRnh5xTrzrijmpayo+8nPozDimX2XEnJSFhQ94OeI7gejsOjkW2lXgRn2xXyU0KtK9UGQR4IPSKIorotIV64bB+1A7YrDZepFUbHKuI8keKCMHiJHRhxqHvGKU2WaXTmjyojNJ+xIHbCkhSVJ9YIPjiqRVQanUYhGRZkuN/uKy6NSYpnVSnRAMy/Jab/AHlZYSAlKR6gO2dKVMNMvSqejkiSUyEftjo2iumGpXpTDlmiLwn1/sDtrTlRC7EpdabRxsrMd74V8aejaDaIWYNUrTiMi+sMM/CjjPbVw0dmv0Wo0x3kkMlKT9FXKk+BxMiPwJcmJIQUPMOKbWk9RScj0SFDfqEyLDjIK3n3EtoSPWo5YoFIZoNGp1MZ5I7IQT9JXKo+J7b00WkpiS3ccRr/AAnsm5YHUsci+iaF7RLz7txy2vQazbhg9autfblQgRapClQpbQcYfbUhaT6iPxHKMXjasu0qy9BeBUyolcd3qW2ehWbaku7awzCaBSwjJcl76DeIEGLTIUaFEaDbDDYQhI6gO3bvtSBd1KchSQEupzVHfy42l4rtDqNu1F+nz2Ch5s8R6lJ6lJ9h6BQqFUbiqTFPgMFbq+U9SE9alewYtK1YFpUpuFFHCcOSn3iON1fr7fu6z6Xd8AxpieA8gH5CQkDhtnFz2nV7UmmLPY9Ak/JPpzLbo9h/PWvadXuyaI0Bj0B/nPqzDbY9pxaVoUu0YAjQ0cN5QBfkKA4biv1BqlJp1ahuwqhFQ+wscaVD7x6iMXfocqNOLsugkzI3KWD/AJyPd9LDrLrDi23m1tuJJCkKBSoH2g/mmWXZDiGmWlOOKICUJBUo+wAYtDQ3UagWpdeUYkblEcf5q/f9HFMpVPo0NqFAioYYQOJCR95/US4LNt25kEVGnoU7lxPo9BweIxXdB09krdotRQ+jqZf9BeKpZ9z0YqE2iyUJHzwgrR+8nBBHKMv7gBPIM8UuzrnrJSIVFkrScsllBQj95WKFoOnPFDlbqSGEdbLHprxQLOt22UAU6noS7lkX1+m4feo/qRxHqxMt+hVHMzKREeJ+ctpJV9uHtGlkPkk0BlPwFScaqLHzz/sk/wDtXhnRpZDBBFAZV8ZUrEO36HTsjDpERkj5yGkg/bjiHV/wUZgYK2wONYHiMKnQkZhcxke9xOFViko/SqkUe95P9cGv0MctZhbwj+uP+oaB/wCcgbwjAr9DPJWYW8I/rhNYpK/0apFPueT/AFwmdCXkETGT7nE4C2yOJYPiMZg9vSZ0KGnhyZjDKfW44lH3qyxM0hWbBzDtfjlQ6myXP5cS9NFnx8wyJcj4Gsv5sStPEUZ/ktvOr9rrwT+AOJGnSvrzDFIhNfEVrOH9MV7PZ8CTHaH1GU4e0lXu/wAtffT7EBKcPXjdT/6dwTvB5Sfww5Wqw9n8rVpi/ieWfxOFyJDn6b61fEon8ccJX0jjM+v+5mfXjhK+kcIkSG/0H1p+FRH4YbrVYZy+Sq0xHwvLH4HDV43UxlwLgneLylfjhnSVe7HJX3lD1LCVYY0xXszlw5Md0fXZTiPp0r6Mg/SITvwlaDiLp4inL8qt51HtaeCvxAxE00WfIyDwlx/jaz/lxD0hWbO4Iar8cKPU4S3/ADYjToUxPDjTGHk+ttxK/vTn2i462ykrccShAHGpRAHiTip6RLOpPCD9bZWsfMZzdP8ADipadKQzmmnUiRIPUp1QaTioaa7rlZiIzFiJ9iCs/wAWJ99XdUs/yivy8j81Cy2P4cOvPPKKnXVrUetSio/f0pp55lQU06tCh1pUUn7sQL6u6m5fk9fl5D5q1lwfxYp+mu64uQlsxZafagoP8OKbp0pD2SajSJEc9amlB1OKZpEs6rcEMVtlCz8x7No/xYbdbeSFtuJWgjiUkgjwI7JqFWplJZL0+ezGR63FhOKzpotmBwkQGn57g60j5Nv7Tir6Z7qn8JEJLEFs/QTw1/arFRrlYqyyufU5Mg/XcJHgOxKdXKxSV8OBU5Ec/UcIHiMUjTPdUDgompYnNj6aeAv7U4o2mi2Z/BRPaegOHrUPlG/tGKfVqZVmQ9AnsyUettYV2GpSUAqUoBI5ScXDpUtWhcNpEkzpI/04+Sh4qxXdMdz1ThtwPk6eyf8Ab9JzxUcSpkuc8p+XKdfdJzK3FlSuyosyXBeS/ElOsOg5hbaylWKDpjuel8Buf8nUGR/uei54KGLe0qWrXeA0uSYMk/6cjJI8FYSpKwFJUCk8hHTnHG2kKWtYQhIJUpRAAA5SScXRphoVHLkelp/tCUMxmk5Mp8cXFfVyXMpQmz1JY6o7WaG+0Levm5LZUkQZ6iwOWO7mtvwB5MWvphodY+Tj1RP9nyjkM1HNlR9+G3G3UJWhYWhQBSpJBBB5CCOl3bf9DtJspfd+XmEZoitnNfvV6sXVf9wXW4pMmR8jEzzTFaJSj9r19qWrf9wWotKY0gvRM/SiuklH7PqxaV/0O7Wwlh35CYBmuK4cl+9Pr6QSAMychli/tLaYpepluuBbwzS7M5Qj2N4ffekvOPPurcdWSVrUSpRJ5SSe1mH3ozzbzDq23UEFC0kpUCOQgjFg6W0SixTLicCHTklqZyBfscwCCMwcxl0XiGNJukxc1b9Doj+UVOaJMlJ43T9FHs7a0ZaTFwlx6HW384yskRpCuVv6q/ZjiPRNLt7KpEQUOA7lMkozkLB422j1e9XbmiK9lVeIaHPdzmRkZx1k8bjQ6venodQmsU2DLmvqyaYaU4v3JGeK1VpNcqs6oyVZuSHSv3DqA7cotWk0OqwajGVk5HdC/eOsHFPmsVKDEmsKzafaS4j3KGfQtL9QVBsyU0lWSpTzbPgeM9vaIKgqdZkVtaszFecZ8BxjoWnQ5W3Su8B5au3tBZztuq94Hy09C06c3KT3gPLV29oL5uVbvA+WnoWnTm5Se8B5au3tBfNyrd4Hy09C06c3KT3gPLV29oL5uVbvA+WnoWnTm5Se8B5au3tBfNyrd4Hy09C06c3KT3gPLV29oL5uVbvA+WnoWnTm5Se8B5au3tBfNyrd4Hy09C06c3KT3gPLV29oL5uVbvA+WnoWnTm5Se8B5au3tBfNyrd4Hy09C06c3KT3gPLV29oL5uVbvA+WnoWnTm5Se8B5au3tBfNyrd4Hy09C06c3KT3gPLV29oL5uVbvA+WnoWnTm5Se8B5au3tBfNyrd4Hy09C06c3KT3gPLV29oL5uVbvA+WnoWnTm5Se8B5au3tBfNyrd4Hy09C0pWvVrqo8CJS2kLdalh1YWsI9HgEY1O3xskbeE41O3xskbeE41O3xskbeE41O3xskbeE41O3xskbeE41O3xskbeE41O3xskbeE41O3xskbeE41O3xskbeE41O3xskbeE41O3xskbeE41O3xskbeE41O3xskbeE41O3xskbeE41O3xskbeE41O3xskbeE41O3xskbeE41O3xskbeE41O3xskbeE41O3xskbeE41O3xskbeE41O3xskbeE41O3xskbeE41O3xskbeE41O3xskbeE41O3xskbeE41O3xskbeE41O3xskbeE41O3xskbeE41O3xskbeE41O3xskbeE41O3xskbeE41O3xskbeE41O3xskbeE41O3xskbeE41O3xskbeE41O3xskbeE41O3xskbeE41O3xskbeE41O3xskbeE41O3xskbeE41O3xskbeE41O3xskbeE41O3xskbeE41O3xskbeE41O3xskbeE41O3xskbeE41O3xskbeE41O3xskbeE41O3xskbeE41O3xskbeE41O3xskbeE41O3xskbeE41O3xskbeE41O3xskbeE41O3xskbeE41O3xskbeE41O3xskbeE41O3xskbeE41O3xskbeE41O3xskbeE40W2vVrVo8+JVGkIddll1AQsL9HgAf8AJV//xAAqEQACAQIFAwMFAQEAAAAAAAABAgMAQBETMDEyEiFxQVBhIEJRUoAQgf/aAAgBAgEBPwD+8lhY7mslKMI9DTIy7+xgEkAUiBB8/Qakj6e429ijTAYnc/UadOg4ewRr1N8DQkXqX5HsES4L50ZF6WN8oxYDSmXtjfQjFidJh1KRfQjBTpsMGIvYxgg05Rg5vV4jTm3HtE323g3GpNsvtE/23o2GnNut6vFfGnNyHi9iOKDTkOLtewncaZ7k3sRwcaUhwQ34OIB0Zm7gX8LbroEgAk0SSSTfqcCDSnEA/XK32+wxv0nA7H6nfoHzW/sSSdPYjtQIPcH/AF5Avbc0SScT7ICRsazH/ai7Hdv4WwP4rA/rXSf19hCsdhQhY7mhCvqaCKPtrAfj6ekfrWUh9KMP4ajG49LpYmbftQiUemsVDbimh/BoqV3FqqF/FLGq+lkQDuKeH1WzSLHu1syB/NMpU4Gwjjw7nf8AFwVDDA06lTrRJsxumUMMDTKVOGpGvU3xeSL1D5GpGvSovZF6W+DpIOpgL6VcV8aUI3N8e4I0oeP/AG/fk3nRi4Dyb+Tm2jFwHk38nNtGLgPJv5ObaMXAeTfyc20YuA8m/k5toxcB5N/JzbRi4Dyb+Tm2jFwHk38nNtGLgPJv5ObaMXAeTfyc20YuA8m/k5toxcB5N/JzbRi4Dyb+Tm2jFwHk38nNtGLgPJv5ObaKSKq4Gs5KzkrOSs5KzkrOSs5KzkrOSs5KzkrOSs5KzkrOSs5KzkrOSs5KzkrOSs5KzkrOSs5KzkrOSs5KzkrOSnOLE/0r/8QAIBEAAQQDAQEBAQEAAAAAAAAAAQACEjERMEBQQSCAUf/aAAgBAwEBPwD+8i9SKkg7PiE5/LXZ8JxycfsHI8BxwNDTg+A45OlpyO40dTL7n1qFjudesUO02dba7TetleQz75DPvkM8hn3tN62V2uvW2u1/zyHVqbfkM+nveNI7zoaPBcM/oDPhloP4DcoeLELA/hfIWR4JOFMKRWT+slSKmpDqLlI7skIOQOeUuARcTxh3+8Zd8HMDhA54HO+DoBwgc7nH4OoHCBzsccDsacHY45Pa05GpxwO5pwdT/IdfeKGl194oaXX3ihpdfeKGl194oaXX3ihpdfeKGl194oaXX3ihpdfeKGl194oaXX3ihpdfeKGl194oaXX3ihpdfeKGlwJKiVEqJUSolRKiVEqJUSolRKiVEqJUSolRKiVEqJUSolRKiVEqJUSolRKFD+lf/9k=;" vertex="1" parent="1">
          <mxGeometry x="324" y="110" width="90" height="90" as="geometry" />
        </mxCell>
      </root>
    </mxGraphModel>
  </diagram>
</mxfile>
